<svg id="Layer_1" data-name="Layer 1" xmlns="http://www.w3.org/2000/svg" viewBox="0 0 994.77 584.94"><defs><style>.cls-1{fill:#020202;}.cls-1,.cls-2,.cls-3{stroke:#000;stroke-miterlimit:10;stroke-width:10px;}.cls-1,.cls-2{stroke-linecap:round;}.cls-3{stroke-linecap:square;}</style></defs><title>ER</title><path class="cls-1" d="M1645.23,688.73l101.83,130.82a7.4,7.4,0,0,0,5.85,2.88h145.73a7.54,7.54,0,0,0,5.61-12.49L1791.42,679.12a7.42,7.42,0,0,0-5.62-2.58H1651.08A7.54,7.54,0,0,0,1645.23,688.73Z" transform="translate(-1203.4 -242.49)"/><path class="cls-2" d="M1661.33,626.23C1779.6,442.08,1900.07,267,1909.27,251.43c60.34,6.78,133.33,31.21,190.22,63.18,50.5,28.38,92.75,65.28,93.67,108.46,2.7,126.52-379.4,202.6-390.66,203.44-8.58.64-17,.64-17,.64-3.79,0-6.59-.1-7.26-.12C1726,626.16,1687,626.11,1661.33,626.23Z" transform="translate(-1203.4 -242.49)"/><path class="cls-3" d="M1229.36,247.49H1810a20.92,20.92,0,0,1,17.74,32l-80.11,128.13a21,21,0,0,1-17.74,9.83H1308.08a20.92,20.92,0,0,1-17.83-10l-78.72-128.13A20.92,20.92,0,0,1,1229.36,247.49Z" transform="translate(-1203.4 -242.49)"/><path class="cls-2" d="M1681.67,496.28l-76,122.28a13.4,13.4,0,0,1-11.39,6.33H1418.6a13.41,13.41,0,0,1-11.56-6.61L1335.1,496a13.42,13.42,0,0,1,11.56-20.22h323.62A13.41,13.41,0,0,1,1681.67,496.28Z" transform="translate(-1203.4 -242.49)"/><path class="cls-2" d="M1580.25,687.6l-77.67,126.54a7.27,7.27,0,0,1-6.19,3.46H1300.83a7.24,7.24,0,0,1-6.15-3.42l-78.49-125.7a7.26,7.26,0,0,1,6.14-11.1l351.71-.84A7.26,7.26,0,0,1,1580.25,687.6Z" transform="translate(-1203.4 -242.49)"/><path class="cls-2" d="M1291,920.29" transform="translate(-1203.4 -242.49)"/><path class="cls-2" d="M1291,213.57" transform="translate(-1203.4 -242.49)"/></svg>