<svg id="Layer_1" data-name="Layer 1" xmlns="http://www.w3.org/2000/svg" viewBox="0 0 877.42 845.02"><defs><style>.cls-1{fill:#fff;}.cls-1,.cls-2,.cls-3{stroke:#000;stroke-miterlimit:10;}.cls-2{stroke-linecap:square;}.cls-2,.cls-3{stroke-width:10px;}.cls-3{stroke-linecap:round;}</style></defs><title>ER1</title><ellipse class="cls-1" cx="438.71" cy="422.51" rx="438.21" ry="422.01"/><path class="cls-2" d="M1251.72,265.52h559.57a20.16,20.16,0,0,1,17.09,30.86l-77.2,123.48a20.18,20.18,0,0,1-17.1,9.47H1327.59a20.17,20.17,0,0,1-17.19-9.6l-75.87-123.49A20.17,20.17,0,0,1,1251.72,265.52Z" transform="translate(-1091.91 -89.2)"/><path class="cls-3" d="M1687.66,505.3l-73.21,117.85a12.94,12.94,0,0,1-11,6.11H1434.11a12.94,12.94,0,0,1-11.14-6.37L1353.63,505a12.93,12.93,0,0,1,11.15-19.48h311.9A12.92,12.92,0,0,1,1687.66,505.3Z" transform="translate(-1091.91 -89.2)"/><path class="cls-3" d="M1589.9,689.69l-74.86,122a7,7,0,0,1-6,3.34H1320.61a7,7,0,0,1-5.94-3.29L1239,690.54a7,7,0,0,1,5.91-10.7l339-.8A7,7,0,0,1,1589.9,689.69Z" transform="translate(-1091.91 -89.2)"/></svg>